<?xml version="1.0" encoding="iso-8859-1"?>
<!-- Generator: Adobe Illustrator 18.0.0, SVG Export Plug-In . SVG Version: 6.00 Build 0)  -->
<!DOCTYPE svg PUBLIC "-//W3C//DTD SVG 1.1//EN" "http://www.w3.org/Graphics/SVG/1.1/DTD/svg11.dtd">
<svg version="1.1" id="Capa_1" xmlns="http://www.w3.org/2000/svg" xmlns:xlink="http://www.w3.org/1999/xlink" x="0px" y="0px"
	 viewBox="0 0 272 272" style="enable-background:new 0 0 272 272;" xml:space="preserve">
<g>
	<path d="M263,14.043H9c-4.971,0-9,4.029-9,9v166c0,4.971,4.029,9,9,9h99.622v41.914H93c-4.971,0-9,4.029-9,9s4.029,9,9,9h86
		c4.971,0,9-4.029,9-9s-4.029-9-9-9h-15.622v-41.914H263c4.971,0,9-4.029,9-9v-166C272,18.072,267.971,14.043,263,14.043z
		 M254,32.043v110H18v-110H254z M145.378,239.957h-18.756v-41.914h18.756V239.957z M18,180.043v-20h236v20H18z"/>
</g>
<g>
</g>
<g>
</g>
<g>
</g>
<g>
</g>
<g>
</g>
<g>
</g>
<g>
</g>
<g>
</g>
<g>
</g>
<g>
</g>
<g>
</g>
<g>
</g>
<g>
</g>
<g>
</g>
<g>
</g>
</svg>
